<?xml version="1.0" standalone="no"?>
<!DOCTYPE svg PUBLIC "-//W3C//DTD SVG 20010904//EN"
 "http://www.w3.org/TR/2001/REC-SVG-20010904/DTD/svg10.dtd">
<svg version="1.0" xmlns="http://www.w3.org/2000/svg"
 width="1157.000000pt" height="1210.000000pt" viewBox="0 0 1157.000000 1210.000000"
 preserveAspectRatio="xMidYMid meet">

<g transform="translate(0.000000,1210.000000) scale(0.100000,-0.100000)"
fill="red" stroke="none">
<path d="M7740 11995 c-346 -46 -619 -104 -927 -196 -731 -218 -1498 -618
-2208 -1152 -674 -507 -1258 -1072 -1721 -1667 -131 -168 -584 -770 -584 -776
0 -8 19 5 106 72 225 174 611 427 849 556 742 403 1412 622 2190 715 214 25
779 25 985 0 499 -61 903 -174 1305 -365 676 -320 1232 -811 1647 -1454 48
-75 88 -139 88 -142 0 -2 22 -43 49 -89 106 -183 236 -474 324 -722 300 -845
374 -1852 212 -2855 -42 -259 -83 -449 -161 -740 -6 -24 -6 -24 8 -5 14 18 97
159 156 265 14 25 58 101 97 170 491 849 714 1355 980 2230 88 289 208 823
250 1105 9 61 18 119 21 130 15 66 44 361 55 543 17 313 7 918 -20 1127 -99
788 -292 1359 -636 1885 -110 167 -183 261 -323 410 -366 391 -737 630 -1257
809 -164 56 -468 122 -655 142 -165 17 -711 20 -830 4z"/>
<path d="M5880 9074 c-19 -2 -84 -9 -145 -15 -556 -54 -1181 -220 -1710 -454
-128 -57 -156 -70 -340 -162 -596 -298 -1059 -609 -1660 -1112 -522 -439 -914
-850 -1326 -1391 -97 -128 -464 -613 -483 -640 -13 -18 -6 -13 75 52 271 218
765 521 1154 708 651 314 1240 483 1955 562 184 20 800 17 980 -5 739 -92
1355 -312 1910 -683 201 -134 222 -149 382 -283 460 -385 859 -902 1128 -1465
38 -80 70 -148 70 -151 0 -2 12 -30 26 -61 30 -66 122 -310 154 -409 130 -406
210 -828 251 -1321 16 -194 6 -842 -15 -1034 -39 -347 -97 -681 -167 -969 -17
-67 -28 -125 -26 -127 4 -4 63 93 125 206 14 25 60 106 102 180 130 227 385
690 430 780 136 270 350 803 460 1145 180 558 303 1105 365 1620 8 72 17 147
20 169 31 227 45 848 25 1136 -66 965 -322 1741 -784 2385 -76 105 -128 169
-235 285 -371 405 -805 691 -1311 865 -366 126 -696 180 -1156 189 -120 2
-235 2 -254 0z"/>
</g>
</svg>
